<?xml version="1.0" encoding="utf-8"?>
<!-- Generator: Adobe Illustrator 21.0.0, SVG Export Plug-In . SVG Version: 6.00 Build 0)  -->
<svg version="1.1" id="Layer_1" xmlns="http://www.w3.org/2000/svg" xmlns:xlink="http://www.w3.org/1999/xlink" x="0px" y="0px"
	 width="32.4px" height="32.4px" viewBox="0 0 32.4 32.4" style="enable-background:new 0 0 32.4 32.4;" xml:space="preserve">
<style type="text/css">
	.st0{fill:url(#SVGID_1_);}
	.st1{fill:#FFFFFF;}
	.st2{fill:#0C0C0C;}
	.st3{fill:url(#SVGID_2_);}
</style>
<g>
	<path d="M28.8,32.4H3.6c-2,0-3.6-1.6-3.6-3.6V3.6C0,1.6,1.6,0,3.6,0h25.2c2,0,3.6,1.6,3.6,3.6v25.2C32.4,30.8,30.8,32.4,28.8,32.4z
		"/>
	<path class="st1" d="M5.4,10.8H9c1,0,1.8-0.8,1.8-1.8V5.4c0-1-0.8-1.8-1.8-1.8H5.4c-1,0-1.8,0.8-1.8,1.8V9
		C3.6,10,4.4,10.8,5.4,10.8z M27,3.6h-3.5c-1,0-1.8,0.8-1.8,1.8V9c0,1,0.8,1.8,1.8,1.8H27c1,0,1.8-0.8,1.8-1.8V5.4
		C28.8,4.4,28,3.6,27,3.6z M27,12.6h-7.2V5.4c0-1-0.8-1.8-1.8-1.8h-3.5c-1,0-1.8,0.8-1.8,1.8V18c0,1,0.8,1.8,1.8,1.8H27
		c1,0,1.8-0.8,1.8-1.8v-3.5C28.8,13.4,28,12.6,27,12.6z M18,21.6h-7.2v-7.2c0-1-0.8-1.8-1.8-1.8H5.4c-1,0-1.8,0.8-1.8,1.8V27
		c0,1,0.8,1.8,1.8,1.8H18c1,0,1.8-0.8,1.8-1.8v-3.5C19.8,22.5,19,21.6,18,21.6z M27,21.6h-3.5c-1,0-1.8,0.8-1.8,1.8V27
		c0,1,0.8,1.8,1.8,1.8H27c1,0,1.8-0.8,1.8-1.8v-3.5C28.8,22.5,28,21.6,27,21.6z"/>
</g>
</svg>
