<?xml version="1.0" encoding="utf-8"?>
<!-- Generator: Adobe Illustrator 21.0.0, SVG Export Plug-In . SVG Version: 6.00 Build 0)  -->
<svg version="1.1" id="Layer_1" xmlns="http://www.w3.org/2000/svg" xmlns:xlink="http://www.w3.org/1999/xlink" x="0px" y="0px"
	 width="165.5px" height="32.4px" viewBox="0 0 165.5 32.4" style="enable-background:new 0 0 165.5 32.4;" xml:space="preserve">
<style type="text/css">
	.st0{fill:url(#SVGID_1_);}
	.st1{fill:#FFFFFF;}
	.st2{fill:#0C0C0C;}
	.st3{fill:url(#SVGID_2_);}
</style>
<g>
	<linearGradient id="SVGID_1_" gradientUnits="userSpaceOnUse" x1="21.1538" y1="34.6286" x2="11.2896" y2="-2.1851">
		<stop  offset="0" style="stop-color:#41FFE5"/>
		<stop  offset="1" style="stop-color:#41C5E5"/>
	</linearGradient>
	<path class="st0" d="M28.8,32.4H3.6c-2,0-3.6-1.6-3.6-3.6V3.6C0,1.6,1.6,0,3.6,0h25.2c2,0,3.6,1.6,3.6,3.6v25.2
		C32.4,30.8,30.8,32.4,28.8,32.4z"/>
	<path class="st1" d="M5.4,10.8H9c1,0,1.8-0.8,1.8-1.8V5.4c0-1-0.8-1.8-1.8-1.8H5.4c-1,0-1.8,0.8-1.8,1.8V9
		C3.6,10,4.4,10.8,5.4,10.8z M27,3.6h-3.5c-1,0-1.8,0.8-1.8,1.8V9c0,1,0.8,1.8,1.8,1.8H27c1,0,1.8-0.8,1.8-1.8V5.4
		C28.8,4.4,28,3.6,27,3.6z M27,12.6h-7.2V5.4c0-1-0.8-1.8-1.8-1.8h-3.5c-1,0-1.8,0.8-1.8,1.8V18c0,1,0.8,1.8,1.8,1.8H27
		c1,0,1.8-0.8,1.8-1.8v-3.5C28.8,13.4,28,12.6,27,12.6z M18,21.6h-7.2v-7.2c0-1-0.8-1.8-1.8-1.8H5.4c-1,0-1.8,0.8-1.8,1.8V27
		c0,1,0.8,1.8,1.8,1.8H18c1,0,1.8-0.8,1.8-1.8v-3.5C19.8,22.5,19,21.6,18,21.6z M27,21.6h-3.5c-1,0-1.8,0.8-1.8,1.8V27
		c0,1,0.8,1.8,1.8,1.8H27c1,0,1.8-0.8,1.8-1.8v-3.5C28.8,22.5,28,21.6,27,21.6z"/>
	<g>
		<g>
			<path class="st2" d="M41.4,21.2V9.7h1.9v9.6h5.2v1.8H41.4z"/>
			<path class="st2" d="M56.1,17.2v-4.7h1.8v8.7h-1.8v-1.6c-0.3,0.5-0.7,1-1.2,1.3c-0.5,0.3-1.1,0.5-1.7,0.5c-1,0-1.8-0.3-2.4-0.9
				s-0.9-1.5-0.9-2.6v-5.4h1.8v4.8c0,1.6,0.7,2.4,2,2.4c0.6,0,1.2-0.2,1.7-0.6C55.8,18.6,56.1,18,56.1,17.2z"/>
			<path class="st2" d="M61.7,16.4v4.7h-1.8v-8.7h1.8V14c0.3-0.5,0.7-1,1.2-1.3c0.5-0.3,1.1-0.5,1.7-0.5c1,0,1.8,0.3,2.4,0.9
				c0.6,0.6,0.9,1.5,0.9,2.6v5.4h-1.8v-4.8c0-1.6-0.7-2.4-2-2.4c-0.6,0-1.2,0.2-1.7,0.6C62,15,61.7,15.6,61.7,16.4z"/>
			<path class="st2" d="M73.9,21.3c-1.2,0-2.3-0.4-3.1-1.2s-1.3-1.9-1.3-3.2c0-1.3,0.5-2.4,1.4-3.3c0.9-0.8,2-1.3,3.3-1.3
				c1.3,0,2.4,0.5,3.3,1.4L76.4,15c-0.8-0.7-1.5-1-2.3-1s-1.4,0.3-2,0.8s-0.8,1.2-0.8,2c0,0.8,0.3,1.5,0.8,2
				c0.6,0.6,1.2,0.8,2.1,0.8c0.8,0,1.6-0.4,2.3-1.1l1.1,1.2C76.5,20.8,75.3,21.3,73.9,21.3z"/>
			<path class="st2" d="M81,16.4v4.7h-1.8V9H81v5c0.3-0.5,0.7-1,1.2-1.3c0.5-0.3,1.1-0.5,1.7-0.5c1,0,1.8,0.3,2.4,0.9
				c0.6,0.6,0.9,1.5,0.9,2.6v5.4h-1.8v-4.8c0-1.6-0.7-2.4-2-2.4c-0.6,0-1.2,0.2-1.7,0.6C81.2,15,81,15.6,81,16.4z"/>
			<path class="st2" d="M91.5,13.9v4.4c0,0.4,0.1,0.7,0.3,1c0.2,0.2,0.5,0.4,0.9,0.4c0.4,0,0.8-0.2,1.1-0.6l0.8,1.3
				c-0.6,0.6-1.4,0.9-2.1,0.9s-1.5-0.3-2-0.8s-0.8-1.3-0.8-2.2v-4.4h-1.1v-1.5h1.1V9.7h1.8v2.7h2.3v1.5H91.5z"/>
			<path class="st2" d="M96.1,10.7c-0.2-0.2-0.3-0.5-0.3-0.8s0.1-0.6,0.3-0.8c0.2-0.2,0.5-0.3,0.8-0.3s0.6,0.1,0.8,0.3
				c0.2,0.2,0.3,0.5,0.3,0.8s-0.1,0.6-0.3,0.8C97.6,10.9,97.3,11,97,11S96.4,10.9,96.1,10.7z M97.9,21.2H96v-8.7h1.8V21.2z"/>
			<path class="st2" d="M101.7,16.4v4.7h-1.8v-8.7h1.8V14c0.3-0.5,0.7-1,1.2-1.3c0.5-0.3,1.1-0.5,1.7-0.5c1.4,0,2.3,0.6,2.8,1.7
				c0.9-1.1,1.9-1.7,3.2-1.7c1,0,1.8,0.3,2.4,0.9c0.6,0.6,0.9,1.5,0.9,2.6v5.4h-1.8v-4.8c0-1.6-0.7-2.4-2-2.4
				c-0.6,0-1.2,0.2-1.6,0.6c-0.5,0.4-0.7,1-0.7,1.7v4.9h-1.8v-4.8c0-0.8-0.1-1.4-0.4-1.8c-0.3-0.4-0.8-0.6-1.4-0.6
				c-0.6,0-1.2,0.2-1.7,0.6C101.9,15,101.7,15.6,101.7,16.4z"/>
			<path class="st2" d="M124.2,17.6h-6.8c0,0.6,0.3,1.1,0.9,1.5c0.5,0.4,1.1,0.6,1.8,0.6c1.1,0,1.9-0.3,2.5-1l1.1,1.1
				c-0.9,1-2.2,1.5-3.7,1.5c-1.2,0-2.3-0.4-3.1-1.2c-0.9-0.8-1.3-1.9-1.3-3.3s0.4-2.5,1.3-3.3c0.9-0.8,1.9-1.2,3.1-1.2
				s2.2,0.4,3,1.1c0.8,0.7,1.2,1.7,1.2,3V17.6z M117.3,16.2h5c0-0.7-0.2-1.3-0.7-1.7c-0.5-0.4-1-0.6-1.7-0.6s-1.3,0.2-1.8,0.6
				C117.6,14.9,117.3,15.5,117.3,16.2z"/>
			<path class="st2" d="M130.5,21.2V9.7h1.9v9.6h5.2v1.8H130.5z"/>
			<path class="st2" d="M146.7,21.2H145V20c-0.7,0.9-1.7,1.3-2.9,1.3c-0.9,0-1.7-0.3-2.3-0.8c-0.6-0.5-0.9-1.2-0.9-2.1
				c0-0.9,0.3-1.5,1-1.9s1.5-0.6,2.6-0.6h2.4v-0.3c0-1.2-0.6-1.7-1.9-1.7c-0.8,0-1.7,0.3-2.5,0.9l-0.8-1.1c1.1-0.8,2.3-1.3,3.6-1.3
				c1,0,1.9,0.3,2.5,0.8c0.7,0.5,1,1.3,1,2.5V21.2z M144.9,17.9v-0.7h-2.1c-1.3,0-2,0.4-2,1.2c0,0.4,0.2,0.8,0.5,1s0.8,0.3,1.4,0.3
				c0.6,0,1.1-0.2,1.5-0.5C144.7,18.9,144.9,18.5,144.9,17.9z"/>
			<path class="st2" d="M153.3,12.3c1.2,0,2.2,0.4,3,1.2c0.8,0.8,1.2,1.9,1.2,3.2s-0.4,2.4-1.2,3.3s-1.8,1.3-2.9,1.3
				c-1.1,0-2.1-0.5-3-1.4v1.3h-1.8V9h1.8v5C151.2,12.8,152.1,12.3,153.3,12.3z M150.4,16.8c0,0.8,0.3,1.5,0.8,2
				c0.5,0.5,1.1,0.8,1.8,0.8c0.7,0,1.4-0.3,1.9-0.8s0.8-1.2,0.8-2c0-0.8-0.3-1.5-0.8-2.1c-0.5-0.6-1.2-0.8-1.9-0.8
				c-0.7,0-1.4,0.3-1.9,0.8C150.7,15.3,150.4,16,150.4,16.8z"/>
			<path class="st2" d="M165.5,18.5c0,0.8-0.3,1.5-0.9,2c-0.6,0.5-1.4,0.7-2.3,0.7c-0.6,0-1.3-0.1-2-0.3c-0.7-0.2-1.3-0.6-1.8-1
				l0.9-1.4c1,0.8,2,1.1,3,1.1c0.4,0,0.7-0.1,1-0.3c0.2-0.2,0.4-0.4,0.4-0.7c0-0.4-0.6-0.8-1.7-1.2c-0.1,0-0.2-0.1-0.2-0.1
				c-1.8-0.5-2.7-1.3-2.7-2.5c0-0.8,0.3-1.5,0.9-1.9c0.6-0.5,1.4-0.7,2.5-0.7s2,0.3,2.9,0.9l-0.7,1.4c-0.7-0.5-1.5-0.7-2.3-0.7
				c-0.4,0-0.8,0.1-1.1,0.2c-0.3,0.2-0.4,0.4-0.4,0.7c0,0.3,0.1,0.5,0.4,0.6c0.2,0.1,0.5,0.2,0.8,0.3s0.7,0.2,0.9,0.3
				c0.3,0.1,0.5,0.2,0.8,0.3c0.3,0.1,0.5,0.3,0.8,0.5C165.2,17.1,165.5,17.7,165.5,18.5z"/>
		</g>
	</g>
</g>
</svg>
