<?xml version="1.0" encoding="utf-8"?>
<!-- Generator: Adobe Illustrator 21.0.0, SVG Export Plug-In . SVG Version: 6.00 Build 0)  -->
<svg version="1.1" id="Layer_1" xmlns="http://www.w3.org/2000/svg" xmlns:xlink="http://www.w3.org/1999/xlink" x="0px" y="0px"
	 width="32.4px" height="32.4px" viewBox="0 0 32.4 32.4" style="enable-background:new 0 0 32.4 32.4;" xml:space="preserve">
<style type="text/css">
	.st0{fill:url(#SVGID_1_);}
	.st1{fill:#FFFFFF;}
	.st2{fill:#0C0C0C;}
	.st3{fill:url(#SVGID_2_);}
</style>
<g>
	<path class="st1" d="M28.8,0H3.6C1.6,0,0,1.6,0,3.6v25.2c0,2,1.6,3.6,3.6,3.6h25.2c2,0,3.6-1.6,3.6-3.6V3.6C32.4,1.6,30.8,0,28.8,0
		z M3.6,5.4c0-1,0.8-1.8,1.8-1.8H9c1,0,1.8,0.8,1.8,1.8V9c0,1-0.8,1.8-1.8,1.8H5.4c-1,0-1.8-0.8-1.8-1.8V5.4z M19.8,27
		c0,1-0.8,1.8-1.8,1.8H5.4c-1,0-1.8-0.8-1.8-1.8V14.5c0-1,0.8-1.8,1.8-1.8H9c1,0,1.8,0.8,1.8,1.8v7.2H18c1,0,1.8,0.8,1.8,1.8V27z
		 M28.8,27c0,1-0.8,1.8-1.8,1.8h-3.5c-1,0-1.8-0.8-1.8-1.8v-3.5c0-1,0.8-1.8,1.8-1.8H27c1,0,1.8,0.8,1.8,1.8V27z M28.8,18
		c0,1-0.8,1.8-1.8,1.8H14.5c-1,0-1.8-0.8-1.8-1.8V5.4c0-1,0.8-1.8,1.8-1.8H18c1,0,1.8,0.8,1.8,1.8v7.2H27c1,0,1.8,0.8,1.8,1.8V18z
		 M28.8,9c0,1-0.8,1.8-1.8,1.8h-3.5c-1,0-1.8-0.8-1.8-1.8V5.4c0-1,0.8-1.8,1.8-1.8H27c1,0,1.8,0.8,1.8,1.8V9z"/>
</g>
</svg>
